<?xml version="1.0" encoding="UTF-8"?>
<svg xmlns="http://www.w3.org/2000/svg" id="Layer_2" viewBox="0 0 306.25 67.5">
  <defs>
    <style>.cls-1{fill:#26395a;}.cls-2{fill:#fff;}.cls-3{fill:#be7473;}.cls-4{fill:#25395a;}</style>
  </defs>
  <g id="Layer_1-2">
    <g>
      <g>
        <rect class="cls-2" x="113.56" y="5.04" width="51" height="48.45"></rect>
        <path class="cls-4" d="M111.56,0V67.5h55V0h-55Zm2,53.49V5.04h51V53.49h-51Z"></path>
      </g>
      <g>
        <path class="cls-1" d="M10.85,17.54H0v-5.7H28v5.7h-10.85v29.7h-6.3V17.54Z"></path>
        <path class="cls-1" d="M41.75,43.94h-.15c-.87,1.37-1.97,2.36-3.3,2.97-1.33,.62-2.8,.93-4.4,.93-1.1,0-2.17-.15-3.22-.45-1.05-.3-1.98-.75-2.8-1.35-.82-.6-1.48-1.35-1.98-2.25-.5-.9-.75-1.95-.75-3.15,0-1.3,.23-2.41,.7-3.32,.47-.92,1.09-1.68,1.88-2.3,.78-.62,1.69-1.11,2.73-1.48,1.03-.37,2.11-.64,3.23-.82,1.12-.18,2.24-.3,3.38-.35,1.13-.05,2.2-.08,3.2-.08h1.5v-.65c0-1.5-.52-2.62-1.55-3.38-1.03-.75-2.35-1.12-3.95-1.12-1.27,0-2.45,.23-3.55,.68-1.1,.45-2.05,1.06-2.85,1.82l-3.15-3.15c1.33-1.37,2.89-2.35,4.67-2.95,1.78-.6,3.62-.9,5.52-.9,1.7,0,3.13,.19,4.3,.58,1.17,.38,2.13,.88,2.9,1.48,.77,.6,1.36,1.29,1.77,2.07,.42,.78,.72,1.58,.9,2.38,.18,.8,.29,1.58,.33,2.33,.03,.75,.05,1.41,.05,1.98v13.8h-5.4v-3.3Zm-.35-7.45h-1.25c-.83,0-1.77,.03-2.8,.1-1.03,.07-2.01,.23-2.92,.48-.92,.25-1.69,.62-2.33,1.1-.63,.48-.95,1.16-.95,2.03,0,.57,.12,1.04,.38,1.42,.25,.38,.58,.71,.98,.98,.4,.27,.85,.46,1.35,.57,.5,.12,1,.18,1.5,.18,2.07,0,3.59-.49,4.58-1.48,.98-.98,1.47-2.33,1.47-4.02v-1.35Z"></path>
        <path class="cls-1" d="M53.6,9.44h6v23.75l9.25-9.95h7.7l-10.3,10.9,10.95,13.1h-7.95l-9.55-12.25h-.1v12.25h-6V9.44Z"></path>
        <path class="cls-1" d="M85.25,37.34c.2,1.8,.9,3.2,2.1,4.2,1.2,1,2.65,1.5,4.35,1.5,1.5,0,2.76-.31,3.77-.92,1.02-.62,1.91-1.39,2.68-2.33l4.3,3.25c-1.4,1.73-2.97,2.97-4.7,3.7-1.73,.73-3.55,1.1-5.45,1.1-1.8,0-3.5-.3-5.1-.9-1.6-.6-2.98-1.45-4.15-2.55-1.17-1.1-2.09-2.42-2.77-3.98-.68-1.55-1.02-3.27-1.02-5.17s.34-3.62,1.02-5.17c.68-1.55,1.61-2.88,2.77-3.98,1.17-1.1,2.55-1.95,4.15-2.55,1.6-.6,3.3-.9,5.1-.9,1.67,0,3.19,.29,4.58,.88,1.38,.58,2.57,1.43,3.55,2.52,.98,1.1,1.75,2.46,2.3,4.08,.55,1.62,.83,3.48,.83,5.58v1.65h-18.3Zm12.3-4.5c-.03-1.77-.58-3.16-1.65-4.18-1.07-1.02-2.55-1.52-4.45-1.52-1.8,0-3.23,.52-4.27,1.55s-1.69,2.42-1.92,4.15h12.3Z"></path>
      </g>
      <g>
        <path class="cls-1" d="M176.65,11.84h13.95c2.33,0,4.58,.36,6.75,1.07,2.17,.72,4.08,1.81,5.75,3.28,1.67,1.47,3,3.31,4,5.52,1,2.22,1.5,4.82,1.5,7.82s-.58,5.66-1.73,7.88c-1.15,2.22-2.63,4.05-4.45,5.5-1.82,1.45-3.83,2.53-6.05,3.25-2.22,.72-4.39,1.08-6.52,1.08h-13.2V11.84Zm11,29.7c1.97,0,3.83-.22,5.58-.67s3.27-1.15,4.58-2.1c1.3-.95,2.32-2.18,3.07-3.7,.75-1.52,1.12-3.36,1.12-5.53s-.33-3.97-1-5.5c-.67-1.53-1.59-2.77-2.77-3.72-1.18-.95-2.58-1.65-4.2-2.1-1.62-.45-3.39-.68-5.33-.68h-5.75v24h4.7Z"></path>
        <path class="cls-1" d="M212.85,35.24c0-1.9,.34-3.62,1.03-5.17,.68-1.55,1.61-2.88,2.78-3.98,1.17-1.1,2.55-1.95,4.15-2.55,1.6-.6,3.3-.9,5.1-.9s3.5,.3,5.1,.9c1.6,.6,2.98,1.45,4.15,2.55,1.17,1.1,2.09,2.42,2.78,3.98,.68,1.55,1.02,3.27,1.02,5.17s-.34,3.62-1.02,5.17c-.68,1.55-1.61,2.88-2.78,3.98-1.17,1.1-2.55,1.95-4.15,2.55-1.6,.6-3.3,.9-5.1,.9s-3.5-.3-5.1-.9c-1.6-.6-2.98-1.45-4.15-2.55-1.17-1.1-2.09-2.42-2.78-3.98-.68-1.55-1.03-3.27-1.03-5.17Zm6,0c0,.93,.16,1.83,.47,2.7,.32,.87,.78,1.63,1.4,2.3,.62,.67,1.36,1.2,2.22,1.6s1.85,.6,2.95,.6,2.08-.2,2.95-.6,1.61-.93,2.22-1.6c.62-.67,1.08-1.43,1.4-2.3,.32-.87,.47-1.77,.47-2.7s-.16-1.83-.47-2.7c-.32-.87-.78-1.63-1.4-2.3-.62-.67-1.36-1.2-2.22-1.6s-1.85-.6-2.95-.6-2.08,.2-2.95,.6-1.61,.93-2.22,1.6c-.62,.67-1.08,1.43-1.4,2.3-.32,.87-.47,1.77-.47,2.7Z"></path>
        <path class="cls-1" d="M241.3,23.24h6.5l5.2,16.8h.1l4.85-16.8h6.5l5.2,16.8h.1l5-16.8h6.05l-8.15,24h-5.95l-5.7-16.4h-.1l-5.05,16.4h-6.2l-8.35-24Z"></path>
        <path class="cls-1" d="M284.35,23.24h5.7v3.85h.1c.57-1.2,1.43-2.24,2.6-3.12,1.17-.88,2.75-1.33,4.75-1.33,1.6,0,2.96,.27,4.08,.8,1.12,.53,2.03,1.23,2.72,2.1,.7,.87,1.2,1.87,1.5,3,.3,1.13,.45,2.32,.45,3.55v15.15h-6v-12.15c0-.67-.03-1.41-.1-2.23-.07-.82-.24-1.58-.53-2.3s-.72-1.32-1.33-1.8c-.6-.48-1.42-.73-2.45-.73s-1.84,.17-2.53,.5c-.68,.33-1.25,.78-1.7,1.35-.45,.57-.77,1.22-.97,1.95-.2,.73-.3,1.5-.3,2.3v13.1h-6V23.24Z"></path>
      </g>
      <path class="cls-3" d="M124.94,11.84h6.3V47.24h-6.3V11.84Z"></path>
      <path class="cls-3" d="M135.64,28.34v-5.1h4.95v-6.95h6v6.95h6.6v5.1h-6.6v10.5c0,1.2,.23,2.15,.68,2.85,.45,.7,1.34,1.05,2.67,1.05,.53,0,1.12-.06,1.75-.17,.63-.12,1.13-.31,1.5-.58v5.05c-.63,.3-1.41,.51-2.32,.62-.92,.12-1.73,.18-2.43,.18-1.6,0-2.91-.18-3.92-.52-1.02-.35-1.82-.88-2.4-1.6-.58-.72-.98-1.61-1.2-2.68-.22-1.07-.33-2.3-.33-3.7v-11h-4.95Z"></path>
    </g>
  </g>
</svg>
